<svg width="56" height="56" viewBox="0 0 56 56" fill="none" xmlns="http://www.w3.org/2000/svg">
<circle r="28" transform="matrix(-1 0 0 1 28 28)" fill="#F4F4F4"/>
<path d="M22.08 29.336C23.712 28.216 25.44 27.096 27.264 25.976C29.056 24.824 30.816 23.752 32.544 22.76V22.424L32.112 20.6L31.92 20.408C29.712 22.04 27.456 23.608 25.152 25.112C22.848 26.584 20.544 27.992 18.24 29.336V29.576C20.544 30.92 22.848 32.344 25.152 33.848C27.456 35.32 29.712 36.872 31.92 38.504L32.112 38.312L32.544 36.488V36.152C30.816 35.128 29.056 34.056 27.264 32.936C25.44 31.816 23.712 30.696 22.08 29.576V29.336Z" fill="#C4C4C4"/>
</svg>
