<svg width="56" height="56" viewBox="0 0 56 56" fill="none" xmlns="http://www.w3.org/2000/svg">
<circle cx="28" cy="28" r="28" fill="#F4F4F4"/>
<path d="M33.92 29.336C32.288 28.216 30.56 27.096 28.736 25.976C26.944 24.824 25.184 23.752 23.456 22.76V22.424L23.888 20.6L24.08 20.408C26.288 22.04 28.544 23.608 30.848 25.112C33.152 26.584 35.456 27.992 37.76 29.336V29.576C35.456 30.92 33.152 32.344 30.848 33.848C28.544 35.32 26.288 36.872 24.08 38.504L23.888 38.312L23.456 36.488V36.152C25.184 35.128 26.944 34.056 28.736 32.936C30.56 31.816 32.288 30.696 33.92 29.576V29.336Z" fill="#C4C4C4"/>
</svg>
